<svg width="352" height="32" viewBox="0 0 352 32" fill="none" xmlns="http://www.w3.org/2000/svg">
<g clip-path="url(#clip0_1318_1479)">
<g clip-path="url(#clip1_1318_1479)">
<mask id="mask0_1318_1479" style="mask-type:alpha" maskUnits="userSpaceOnUse" x="0" y="0" width="32" height="32">
<path d="M16 32C24.8366 32 32 24.8366 32 16C32 7.16344 24.8366 0 16 0C7.16344 0 0 7.16344 0 16C0 24.8366 7.16344 32 16 32Z" fill="black"/>
</mask>
<g mask="url(#mask0_1318_1479)">
<path d="M16 32C24.8366 32 32 24.8366 32 16C32 7.16344 24.8366 0 16 0C7.16344 0 0 7.16344 0 16C0 24.8366 7.16344 32 16 32Z" fill="#666666"/>
<path d="M26.5792 28.0036L12.2919 9.6H9.60001V22.3947H11.7535V12.3349L24.8887 29.3058C25.4814 28.9092 26.046 28.4738 26.5792 28.0036Z" fill="url(#paint0_linear_1318_1479)"/>
<path d="M22.5778 9.6H20.4444V22.4H22.5778V9.6Z" fill="url(#paint1_linear_1318_1479)"/>
</g>
</g>
<path fill-rule="evenodd" clip-rule="evenodd" d="M73 3.87564C73.4026 3.64321 73.9894 3.57161 74.8263 3.82106C75.666 4.07135 76.6628 4.62145 77.7525 5.47896C78.0227 5.69156 78.2961 5.92104 78.5715 6.16662C77.7243 7.06893 76.8848 8.08717 76.075 9.20184C74.7049 9.34576 73.4033 9.56371 72.1983 9.84619C72.1233 9.48488 72.0613 9.13342 72.0122 8.79313C71.8145 7.42061 71.8365 6.28229 72.0396 5.42998C72.242 4.5805 72.5974 4.10807 73 3.87564ZM78.9893 3.90722C79.3245 4.17096 79.6618 4.45608 80 4.76134C80.3381 4.45608 80.6755 4.17096 81.0106 3.90722C82.2184 2.95683 83.4396 2.25099 84.6023 1.9044C85.7678 1.55699 86.9677 1.5476 88 2.1436C89.0323 2.73959 89.624 3.78338 89.9059 4.96643C90.1871 6.14665 90.1864 7.55717 89.9673 9.07834C89.9065 9.50048 89.8282 9.9352 89.7329 10.3807C90.1664 10.5209 90.582 10.6705 90.978 10.8289C92.405 11.3997 93.6268 12.1043 94.5083 12.938C95.3919 13.7736 96 14.808 96 16C96 17.192 95.3919 18.2264 94.5083 19.062C93.6268 19.8957 92.405 20.6003 90.978 21.1711C90.582 21.3295 90.1664 21.4791 89.733 21.6193C89.8283 22.0648 89.9065 22.4995 89.9673 22.9217C90.1865 24.4428 90.1872 25.8533 89.906 27.0336C89.6241 28.2166 89.0323 29.2604 88 29.8564C86.9677 30.4524 85.7679 30.443 84.6024 30.0956C83.4397 29.749 82.2185 29.0432 81.0107 28.0928C80.6755 27.829 80.3381 27.5439 80 27.2386C79.6618 27.5439 79.3245 27.829 78.9893 28.0928C77.7815 29.0432 76.5603 29.749 75.3976 30.0956C74.2321 30.443 73.0323 30.4524 72 29.8564C70.9677 29.2604 70.3759 28.2166 70.094 27.0336C69.8128 25.8534 69.8135 24.4428 70.0326 22.9217C70.0935 22.4995 70.1717 22.0648 70.267 21.6193C69.8336 21.4791 69.418 21.3295 69.022 21.1711C67.595 20.6003 66.3732 19.8957 65.4917 19.062C64.6081 18.2264 64 17.192 64 16C64 14.808 64.6081 13.7736 65.4917 12.938C66.3732 12.1043 67.595 11.3997 69.022 10.8289C69.418 10.6705 69.8336 10.5209 70.267 10.3807C70.1717 9.93521 70.0935 9.50048 70.0327 9.07834C69.8135 7.55716 69.8128 6.14665 70.094 4.96643C70.3759 3.78338 70.9677 2.73959 72 2.14359C73.0323 1.5476 74.2321 1.55699 75.3976 1.9044C76.5603 2.25098 77.7815 2.95683 78.9893 3.90722ZM78.7349 9.0205C79.1547 8.50388 79.5776 8.01855 80 7.56712C80.4223 8.01855 80.8453 8.50388 81.265 9.0205C80.8474 9.00691 80.4255 9 80 9C79.5745 9 79.1526 9.00691 78.7349 9.0205ZM81.4285 6.16662C82.2756 7.06893 83.1152 8.08717 83.9249 9.20184C85.2951 9.34576 86.5967 9.56371 87.8016 9.84618C87.8766 9.48487 87.9387 9.13342 87.9877 8.79313C88.1855 7.42062 88.1635 6.28229 87.9604 5.42998C87.758 4.5805 87.4025 4.10808 87 3.87565C86.5974 3.64322 86.0105 3.57161 85.1737 3.82107C84.334 4.07135 83.3372 4.62146 82.2474 5.47897C81.9772 5.69157 81.7039 5.92104 81.4285 6.16662ZM80 11C80.9687 11 81.9128 11.0377 82.8238 11.1091C83.3411 11.8624 83.8458 12.6611 84.3301 13.5C84.8145 14.3389 85.2538 15.1753 85.6475 16C85.2538 16.8246 84.8144 17.6611 84.3301 18.5C83.8458 19.3389 83.3411 20.1376 82.8237 20.8909C81.9127 20.9623 80.9687 21 80 21C79.0313 21 78.0873 20.9623 77.1763 20.8909C76.6589 20.1376 76.1542 19.3389 75.6699 18.5C75.1855 17.6611 74.7461 16.8246 74.3525 16C74.7461 15.1753 75.1855 14.3389 75.6698 13.5C76.1542 12.6611 76.6588 11.8624 77.1762 11.1091C78.0872 11.0377 79.0313 11 80 11ZM86.0622 12.5C86.2749 12.8685 86.4799 13.2373 86.6769 13.6057C86.9144 12.9839 87.1233 12.375 87.303 11.7836C86.7009 11.6435 86.0692 11.5199 85.4119 11.4147C85.6325 11.7696 85.8494 12.1315 86.0622 12.5ZM86.0621 19.5C86.2749 19.1315 86.4799 18.7627 86.6769 18.3942C86.9144 19.016 87.1233 19.6249 87.3031 20.2164C86.7009 20.3565 86.0692 20.4801 85.4119 20.5853C85.6325 20.2304 85.8494 19.8685 86.0621 19.5ZM87.8498 16C88.4103 17.2586 88.8723 18.4948 89.2302 19.6795C89.5806 19.5638 89.916 19.4418 90.2352 19.3142C91.5227 18.7992 92.4975 18.2109 93.1341 17.6089C93.7686 17.0089 94 16.4649 94 16C94 15.5351 93.7686 14.9911 93.1341 14.3911C92.4975 13.7891 91.5227 13.2008 90.2352 12.6858C89.916 12.5581 89.5806 12.4362 89.2302 12.3204C88.8723 13.5052 88.4103 14.7414 87.8498 16ZM83.9249 22.7982C85.2951 22.6542 86.5967 22.4363 87.8017 22.1538C87.8767 22.5151 87.9387 22.8666 87.9878 23.2069C88.1855 24.5794 88.1635 25.7177 87.9604 26.57C87.758 27.4195 87.4026 27.8919 87 28.1244C86.5974 28.3568 86.0106 28.4284 85.1737 28.1789C84.334 27.9287 83.3372 27.3785 82.2475 26.521C81.9773 26.3084 81.7039 26.0789 81.4285 25.8333C82.2756 24.931 83.1151 23.9128 83.9249 22.7982ZM81.265 22.9795C80.8452 23.4961 80.4223 23.9814 80 24.4328C79.5776 23.9814 79.1547 23.4961 78.735 22.9795C79.1526 22.9931 79.5745 23 80 23C80.4255 23 80.8474 22.9931 81.265 22.9795ZM73.9378 19.5C74.1506 19.8685 74.3675 20.2304 74.5881 20.5853C73.9308 20.4801 73.299 20.3565 72.6969 20.2164C72.8767 19.6249 73.0855 19.016 73.323 18.3942C73.5201 18.7627 73.7251 19.1315 73.9378 19.5ZM76.0751 22.7982C74.7049 22.6542 73.4033 22.4363 72.1983 22.1538C72.1233 22.5151 72.0612 22.8666 72.0122 23.2069C71.8145 24.5794 71.8365 25.7177 72.0395 26.57C72.2419 27.4195 72.5974 27.8919 73 28.1244C73.4025 28.3568 73.9894 28.4284 74.8263 28.1789C75.6659 27.9287 76.6627 27.3785 77.7525 26.521C78.0227 26.3084 78.296 26.0789 78.5715 25.8333C77.7243 24.931 76.8848 23.9128 76.0751 22.7982ZM72.1501 16C71.5897 17.2586 71.1276 18.4947 70.7698 19.6795C70.4194 19.5638 70.084 19.4418 69.7648 19.3142C68.4773 18.7992 67.5025 18.2109 66.8659 17.6089C66.2314 17.0089 66 16.4649 66 16C66 15.5351 66.2314 14.9911 66.8659 14.3911C67.5025 13.7891 68.4773 13.2008 69.7648 12.6858C70.084 12.5581 70.4194 12.4362 70.7698 12.3205C71.1277 13.5052 71.5897 14.7414 72.1501 16ZM73.323 13.6058C73.0855 12.9839 72.8767 12.375 72.6969 11.7836C73.299 11.6435 73.9308 11.5199 74.588 11.4147C74.3675 11.7696 74.1505 12.1315 73.9378 12.5C73.7251 12.8685 73.5201 13.2373 73.323 13.6058ZM82.5 16C82.5 17.3807 81.3807 18.5 80 18.5C78.6193 18.5 77.5 17.3807 77.5 16C77.5 14.6193 78.6193 13.5 80 13.5C81.3807 13.5 82.5 14.6193 82.5 16Z" fill="#666666"/>
<g clip-path="url(#clip2_1318_1479)">
<path fill-rule="evenodd" clip-rule="evenodd" d="M142.524 1.41018C146.754 -1.27457 152.639 -0.027111 155.595 4.23052C157.032 6.21018 157.602 8.70509 157.141 11.1458C156.951 12.2848 156.517 13.3695 155.866 14.3458C156.815 16.1085 157.114 18.1424 156.761 20.122C156.354 22.4814 154.944 24.5695 152.91 25.8441L145.453 30.5898C141.222 33.2746 135.364 32.0271 132.381 27.7695C130.971 25.7898 130.402 23.2949 130.836 20.8814C131.025 19.7424 131.459 18.6576 132.11 17.6814C131.161 15.9187 130.863 13.8848 131.215 11.9051C131.622 9.54577 133.032 7.45763 135.066 6.18306L142.524 1.41018ZM135.446 25.8169C136.856 27.8508 139.378 28.8 141.792 28.1763C142.334 28.0136 142.849 27.7966 143.31 27.4983L150.768 22.7525C151.988 21.9932 152.856 20.7186 153.1 19.3085C153.344 17.8441 153.019 16.3525 152.151 15.1593C150.741 13.1254 148.219 12.1763 145.805 12.8C145.263 12.9627 144.747 13.1797 144.286 13.478L141.439 15.2949C141.303 15.3763 141.141 15.4305 140.978 15.4847L140.978 15.4847C140.246 15.6746 139.486 15.4034 139.053 14.7797C138.808 14.4271 138.7 13.9661 138.781 13.5322C138.863 13.0983 139.107 12.7458 139.486 12.5017L146.917 7.75593C147.053 7.67458 147.215 7.62034 147.378 7.5661C148.11 7.37627 148.869 7.64746 149.303 8.27119C149.52 8.59661 149.629 9.00339 149.602 9.38305L149.575 9.65424L149.846 9.73559C150.903 10.061 151.88 10.5492 152.775 11.2L153.154 11.4712L153.29 11.0373C153.371 10.7932 153.425 10.5763 153.48 10.3322C153.724 8.8678 153.398 7.37627 152.531 6.18305C151.12 4.14915 148.598 3.2 146.185 3.82373C145.642 3.98644 145.127 4.20339 144.666 4.5017L137.208 9.24746C135.988 10.0068 135.12 11.2814 134.876 12.6915C134.605 14.1559 134.958 15.6475 135.798 16.8407C137.208 18.8746 139.731 19.8237 142.144 19.2C142.686 19.0644 143.202 18.8475 143.663 18.5492L146.51 16.7322C146.646 16.6508 146.808 16.5966 146.971 16.5424C147.703 16.3525 148.463 16.6237 148.897 17.2475C149.141 17.6 149.249 18.061 149.168 18.4949C149.086 18.9288 148.842 19.2814 148.463 19.5254L141.032 24.2712C140.897 24.3525 140.734 24.4068 140.571 24.461L140.571 24.461C139.839 24.6508 139.08 24.3525 138.646 23.7288C138.429 23.4034 138.32 22.9966 138.347 22.6169L138.375 22.3458L138.103 22.2644C137.046 21.939 136.069 21.4508 135.175 20.8L134.795 20.5288L134.659 20.9627C134.632 21.0847 134.605 21.2 134.578 21.3153C134.551 21.4305 134.524 21.5458 134.497 21.6678C134.253 23.1322 134.578 24.6237 135.446 25.8169Z" fill="#666666"/>
</g>
<g clip-path="url(#clip3_1318_1479)">
<path opacity="0.5" d="M211.439 1.83345L207.744 8.23344L204.049 1.83345H191.744L207.744 29.5466L223.744 1.83345H211.439Z" fill="black"/>
<path d="M211.439 1.83344L207.744 8.23344L204.049 1.83344H198.144L207.744 18.461L217.344 1.83344H211.439Z" fill="black"/>
</g>
<path d="M273.952 26.6667H285.848C286.226 26.6667 286.597 26.5681 286.924 26.3809C287.251 26.1936 287.523 25.9243 287.712 25.6C287.901 25.2756 288 24.9077 288 24.5332C288 24.1588 287.9 23.7909 287.711 23.4667L279.722 9.75249C279.533 9.42823 279.262 9.15893 278.935 8.97169C278.607 8.78449 278.236 8.6859 277.859 8.6859C277.481 8.6859 277.11 8.78449 276.783 8.97169C276.455 9.15893 276.184 9.42823 275.995 9.75249L273.952 13.2615L269.958 6.39975C269.769 6.07551 269.498 5.80625 269.17 5.61905C268.843 5.43189 268.472 5.33333 268.094 5.33333C267.716 5.33333 267.345 5.43189 267.018 5.61905C266.691 5.80625 266.419 6.07551 266.23 6.39975L256.289 23.4667C256.1 23.7909 256 24.1588 256 24.5332C256 24.9077 256.099 25.2756 256.288 25.6C256.477 25.9243 256.749 26.1936 257.076 26.3809C257.403 26.5681 257.774 26.6667 258.152 26.6667H265.619C268.578 26.6667 270.76 25.3787 272.261 22.8658L275.906 16.6096L277.858 13.2615L283.717 23.3185H275.906L273.952 26.6667ZM265.497 23.3151L260.286 23.3139L268.098 9.90527L271.995 16.6096L269.386 21.0907C268.389 22.7211 267.256 23.3151 265.497 23.3151Z" fill="#666666"/>
<g clip-path="url(#clip4_1318_1479)">
<path d="M336 0C327.2 0 320 7.2 320 16C320 24.8 327.2 32 336 32C344.8 32 352 24.8 352 16C352 7.2 344.8 0 336 0ZM327.086 24.9143C324.686 22.5143 323.429 19.3143 323.429 16.2286L335.886 28.5714C332.686 28.4571 329.486 27.3143 327.086 24.9143ZM338.743 28.2286L323.771 13.2571C325.029 7.65714 330.057 3.42857 336 3.42857C340.229 3.42857 343.886 5.48571 346.171 8.57143L344.457 10.0571C342.514 7.42857 339.429 5.71429 336 5.71429C331.543 5.71429 327.771 8.57143 326.286 12.5714L339.429 25.7143C342.743 24.5714 345.257 21.7143 346.057 18.2857H340.571V16H348.571C348.571 21.9429 344.343 26.9714 338.743 28.2286Z" fill="#666666"/>
</g>
</g>
<defs>
<linearGradient id="paint0_linear_1318_1479" x1="19.3778" y1="20.7111" x2="25.6889" y2="28.5333" gradientUnits="userSpaceOnUse">
<stop stop-color="white"/>
<stop offset="1" stop-color="white" stop-opacity="0"/>
</linearGradient>
<linearGradient id="paint1_linear_1318_1479" x1="21.5111" y1="9.6" x2="21.4754" y2="19" gradientUnits="userSpaceOnUse">
<stop stop-color="white"/>
<stop offset="1" stop-color="white" stop-opacity="0"/>
</linearGradient>
<clipPath id="clip0_1318_1479">
<rect width="352" height="32" fill="white"/>
</clipPath>
<clipPath id="clip1_1318_1479">
<rect width="32" height="32" fill="white"/>
</clipPath>
<clipPath id="clip2_1318_1479">
<rect width="32" height="32" fill="white" transform="translate(128)"/>
</clipPath>
<clipPath id="clip3_1318_1479">
<rect width="32" height="32" fill="white" transform="translate(192)"/>
</clipPath>
<clipPath id="clip4_1318_1479">
<rect width="32" height="32" fill="white" transform="translate(320)"/>
</clipPath>
</defs>
</svg>
